<?xml version="1.0" encoding="UTF-8"?>
<svg xmlns="http://www.w3.org/2000/svg" viewBox="0 0 182.57 87.35">
  <defs>
    <style>
      .cls-1 {
        fill: #035ba7;
      }

      .cls-2 {
        fill: none;
        stroke: #231f20;
        stroke-miterlimit: 10;
        stroke-width: 10px;
      }

      .cls-3 {
        fill: #e75625;
      }
    </style>
  </defs>
  <g id="Board_Grid" data-name="Board Grid">
    <polygon class="cls-2" points="-5411.84 -3590.39 11047.77 -3590.39 11047.77 12869.23 2483.01 12869.23 -5411.84 12869.23 -5411.84 -3590.39"/>
  </g>
  <g id="Card_Back_design" data-name="Card Back design">
    <g>
      <g>
        <path class="cls-1" d="M14.14,84.22c-2.63,0-8.51-.25-13.64-.25,1-10.01.62-42.05.5-46.18-.12-6.51-.12-11.51-.25-17.65-.12-6.63-.25-14.64-.75-18.65,3.63,0,7.38-.25,12.52-.25,15.52,0,27.53,9.89,27.53,20.9,0,12.52-5.01,16.77-10.01,19.15,5.88,3,12.26,8.38,12.26,17.27,0,12.77-9.26,25.66-28.16,25.66ZM14.14,46.18c-.25,3.5-.12,9.39-.12,14.64,0,4.63,0,7.38.12,12.01,1.13.25,3.25.25,3.25.25,6.38,0,10.64-5.26,10.64-13.89,0-7.38-5.51-12.89-13.89-13.02ZM14.14,13.14c-.12,3.13-.12,18.27-.12,23.15,6.38.63,12.89-2.25,12.89-11.14,0-7.51-5.51-11.64-12.76-12.01Z"/>
        <path class="cls-1" d="M144.53,15.52c-2.63,0-12.26-1-15.02-1.25.25,5.26,1.5,31.04,1.75,48.93.12,7.76.25,13.27-.13,21.52-5,0-10.13-.88-15.27-.88.75-7.63,1.25-20.52,1.5-32.54.37-14.39-.13-29.66-.13-38.3-1,.13-3.25.25-5,.25-3.13,0-6.76-.12-10.76-.12,1.25-3.38,2.13-9.64,2.13-12.76,3.5.62,6.01.75,8.38.88,12.51.75,29.41,1,34.41,1-.88,3.13-1.63,9.51-1.88,13.27Z"/>
        <path class="cls-1" d="M151.04,87.35c.25-5.26.25-8.38-.13-13.39,11.51,0,18.15-4.13,18.15-9.64,0-6.51-5.38-13.89-9.26-19.27-5.51-7.13-10.76-15.14-10.76-23.78,0-15.39,10.89-21.27,32.79-21.27-.25,3.88-.63,7.88-.12,12.14-11.64.25-18.77,2.38-18.77,7.76s1,6.51,8.64,17.9c5.26,7.51,11.01,16.14,11.01,24.78,0,15.52-7.64,22.28-31.54,24.78Z"/>
      </g>
      <g>
        <path class="cls-3" d="M73.92,21.2c.02.05.07.1.08.16.07-.07.01-.11-.08-.16Z"/>
        <path class="cls-3" d="M103.85,49.63l-.02.03c.17-.01.14-.01.02-.03Z"/>
        <path class="cls-3" d="M80.75,73.68c.37-.21-.78-.82.64-1.22-.1.2.84-1.12,1.05-.6,0,0,2.69-3.32,1.94-4.44.13.11,1.01,1.28,1.15,1.53-.33-1.16-.56-2.36-.75-3.59.22-.2.45-.4.67-.59.88.88,1.22.85,1.42.55,1.55.39.96.11,2.55.27-.45.03-1.2-1.67-.65-1.99.08.28,1.09,1.41,1.02,1.7.05-.77.12-1.55.22-2.33-.14.48.81,1.27,1.37,1.49-.33-.2.58-1.06.58-1.06,1.59-.73.08-3.04,1.62-3.92.02.42.59,1.39,1.47,1.09-.08-.53.66-.44.61-1.75.56-.36.76-.34,1.31-.7l2.21-1.5c.59.1.81,1.73,1.04,2.01-.02-.42,1.11-2.98,1.38-2.87,0,0,1.05-1.3.17-2.37.34-.27.67-.55,1-.83l.24.36.18-.17-.28-.3c.12-.1.24-.19.36-.3.21-.19.42-.4.63-.6.72.56,2.69-1.98,2.55-2.84.22-.29.44-.58.65-.88.03,0,.08.02.11.02,1.08-1.37,1.96-1.98,2.69-3.5.3-.03.16-1.03-.16-1.43.63-1.66,1.01-3.37,1.07-5.08.19-.5.22-1.35.11-2.29-.16-1.24-.5-2.6-.66-3.67-.28-.16-.63-.39-.87-.37-1.07-1.97-2.71-3.56-4.64-4.71.08-.09-.74-.42-.74-.42-.03-.02-.06-.03-.09-.05.11-.15-.03-.18-.27-.12-.42-.2-.86-.39-1.3-.55-.02-.03-.04-.04-.05-.07-.02,0-.04.02-.06.03-.38-.14-.77-.26-1.16-.37-.03-.03-.04-.06-.1-.1-.09.04-.17.02-.25,0-2.73-.69-5.66-.65-8.32.28-3.27,1.14-6.02,3.36-8.05,6.16-.31-1.03-.52-1.87-.75-2.75-.26-1.09-.58-2.24-1.36-3.79l-.48.63c-.3-.66-.24-.9-.28-1.29-.7.01-.41.43-.13.85.28.43-.56-.93-1.37-1.85-.79-.94-1.64-1.77-1.35-2.64-.89-.74-1.12-.4-1.12-.4,0,0-1.13-.87-.94-1.23.13.14.5.21.69.29-.52-1.07-2.54-1.32-2.76-1.6.31.23.59.51.87.78-1.49-.58-3.09-1.29-4.76-1.68-1.66-.41-3.38-.56-4.85-.11l.21.36c-1.1.27-1.51.23-1.98.1-.47-.13-.98-.26-2.15.04l.07-.1c-.42.44-1,.71-1.64.82.5-.56-1.31-.48-.64-1.13-1.11.65-1.32.9-1.44,1.17-.11.27-.12.57-.58,1.44l-.55-.4c-.26.72-.21.92-1.13,1.61.6-.9-1.09-.43-.43-1.53-1.45.02-2.13.88-2.62,1.53-.48.7-1.22,1.67-.73,1.32.52-.33.83,1,.23,1.41-.54.47-2.45-.6-3.75,1.12.13-.16.04-.25.18-.41-.84.38-2.18,3.07-1.15,3.78.2-.58.4-1.17.67-1.73-.32,1.09.56,2.55-.73,3.73-.18-.21-.29-.79-.31-1.19-.53.31-1.16.13-1.48.63-.29.51-.7,1.09-.25,1.95l-.69-.3c.05.25.27.8.14,1.18,0,0-.26,2.84-.91,3.24-.56.37-.61.99-.33,1.6-.17.61-.41,1.45-.79,1.87.38,2.21.73-.4,1.28.5-.83.82.18,1.99.18,1.99.07,2.51,1.64.26,1.67,2.44-.44-.16-.54,1.91-.21,3.13.35-.49,1.3-.47,1.81.39-.03.83-.83.03.03,1.23-.57-.02-1.29-.05-1.02-.97-.25.06.21,1.81.23,1.64.7.43,1.4.81,2.11,1.14-.03.44-.36.37-.7.3.32.31.79.31,1.24.75-.58.27-1.04.72-1.86.18.62.41,1.24.8,1.87,1.14-.12.29.17,1.27-.17,1.24.55,1.12,2.8,1.09,3.56,2.37.13-.04.32-.03.61.09.93.95,1.42,2.28,3.16,2.5l.06,1.41c1.12.48-.14-1.81,1.71-1.02,1.33.49-.12,1.07.11,1.6.88-.07,2.49-.36,2.99,1.07-.45-.05-.62-.37-.98-.51l.43,1.03c-1.5.21,1.34,2.5,2.65.81l.22.71c-.13-.11-.22-.03-.34-.14.33,1.5,1.6-.77,2.61.36.31.44.4.9-.03.89,0,0,1.14.75.91.52.47.31,1.34.99,1.34.99.4-.1,1.19-.07,1.09.2.35.08,0,.77-.41.29-.42,1.07-.2,1.09.18,1.13.38.03.79.67,1.8,1.02.06.31.22.62.86.75-.59.46-.66,1.72-.66,1.72.57.34.98.04,1.57.13.27.68,1.22,1.18.71,1.61.27.91,2.78,2.14,3.91,2.22.96.07,3.24-2.07,3.24-2.07Z"/>
      </g>
    </g>
  </g>
</svg>